<svg xmlns="http://www.w3.org/2000/svg" xmlns:xlink="http://www.w3.org/1999/xlink" width="99" height="99" viewBox="0 0 99 99">
  <defs>
    <clipPath id="clip-path">
      <rect id="Rectangle_401223" data-name="Rectangle 401223" width="99" height="99" transform="translate(0)" fill="#ffc4c4"/>
    </clipPath>
    <clipPath id="clip-path-2">
      <rect id="Rectangle_470957" data-name="Rectangle 470957" width="51.995" height="69.306" fill="#12263f"/>
    </clipPath>
  </defs>
  <g id="img12" transform="translate(-799.863 -10104)">
    <g id="Group_1184301" data-name="Group 1184301" transform="translate(799.863 10104)">
      <g id="Group_1099652" data-name="Group 1099652" clip-path="url(#clip-path)">
        <path id="Path_873521" data-name="Path 873521" d="M99,77.066A22,22,0,0,1,77.066,99H21.934A22,22,0,0,1,0,77.066V21.933A22,22,0,0,1,21.934,0H77.066A22,22,0,0,1,99,21.934Z" transform="translate(0)" fill="#ffc4c4"/>
      </g>
    </g>
    <g id="Group_1220754" data-name="Group 1220754" transform="translate(823.366 10118.848)">
      <g id="Group_1220753" data-name="Group 1220753" clip-path="url(#clip-path-2)">
        <path id="Path_1277613" data-name="Path 1277613" d="M49.27,69.287l-31.46.019a1,1,0,0,1-1.055-.825.884.884,0,0,1,.8-1.154l3.315-.044,2.218-21.42a1.351,1.351,0,0,0-.767-1.044c-.484-.062-1.185.2-1.6-.134l-5.58-4.538L6.259,43.728c-2.855,1.151-4.23,4.346-4.23,7.355l0,15.163A.943.943,0,0,0,3.059,67.31l5.1-.059L8.178,49.6a1,1,0,0,1,1.033-.919.958.958,0,0,1,.985.924l.021,17.666,3.008.052A.891.891,0,0,1,14,68.29,1.055,1.055,0,0,1,13,69.3H2.827A2.761,2.761,0,0,1,.018,66.479L0,51.082c0-3.951,2-7.891,5.756-9.374l13.722-5.417a8.329,8.329,0,0,0,.037-2.72,10.472,10.472,0,0,1-4.182-6.965,4.843,4.843,0,0,1-4.843-2.8,4.938,4.938,0,0,1,1.053-5.613l-.326-8.244a3.593,3.593,0,0,1,2.741-3.6A1.736,1.736,0,0,0,15.185,5.4C18.106-1.3,26.337-.524,32.8,1.189,36.959,2.29,37.875.34,39.288.61a1.749,1.749,0,0,1,1.1,1.007c1.466,3.234,1.262,6.586.518,9.967l-.47,6.6A4.881,4.881,0,0,1,36.662,26.6a10.678,10.678,0,0,1-4.177,6.969,8.158,8.158,0,0,0,.041,2.721l14.021,5.562c3.617,1.435,5.454,5.456,5.446,9.2l-.01,4.378a1.05,1.05,0,0,1-.841.975c-.426.1-1.122-.157-1.128-.752l-.049-5c-.028-2.809-1.509-5.854-4.207-6.93l-8.917-3.557L31.42,44.606c-.734.6-1.9-.477-2.515,1.158L31.145,67.3,41.8,67.293l0-17.486a1.019,1.019,0,1,1,2.027-.211l.021,17.662,5.3.025a.821.821,0,0,0,.827-.839l0-6.259a.987.987,0,0,1,1.039-1.036,1.007,1.007,0,0,1,.971,1.051l-.008,6.286a2.705,2.705,0,0,1-2.709,2.8M32.037,12.318a3.831,3.831,0,0,1,3.7.81,4.028,4.028,0,0,1,1,3.614l1.662.283.541-6.117a13.069,13.069,0,0,0-.272-8.14,7.442,7.442,0,0,1-5.087.65L28.618,2.345c-4.614-.84-9.81-.463-11.629,4-1.048,2.571-3.964,1.16-3.8,4.248l.352,6.427,1.73-.276a3.947,3.947,0,0,1,1.111-3.719,3.85,3.85,0,0,1,3.585-.7,29.553,29.553,0,0,0,12.066,0m2.7,3.144a1.432,1.432,0,0,0-1.6-1.254,34.168,34.168,0,0,1-14.28,0,1.451,1.451,0,0,0-1.615,1.351l.045,9.981a8.631,8.631,0,0,0,8.822,8.121c4.448-.015,8.578-3.462,8.593-8.126ZM15.207,18.917a2.848,2.848,0,1,0,.012,5.667Zm21.635,5.714a2.871,2.871,0,0,0,3.074-3.092A2.824,2.824,0,0,0,36.8,18.91ZM27.066,39.358l3.259-2.589a5.3,5.3,0,0,0,0-1.935,11.215,11.215,0,0,1-8.644-.01,3.5,3.5,0,0,0,.03,1.9l3.221,2.649a7.56,7.56,0,0,0,2.129-.019m-5.531,3.4,1.524-2.27-2.808-2.343L17.338,39.3Zm8.939,0,4.134-3.4-2.939-1.11L28.959,40.5ZM27.3,44.523l.852-1.464c-.363-.465-.61-1.287-1.156-1.571a3.232,3.232,0,0,0-2,0,3.6,3.6,0,0,0-1.055,1.574c-.006.546.535,1.066.816,1.453Zm-.1,4.73-.286-2.683a5.086,5.086,0,0,0-1.746.048c-.179.047-.183.6.013.715Zm.684,6.426c-.212-.894.026-2.119-.426-3.017-.586-1.164-1.85-1.873-2.667-2.881l-.313,2.6Zm.447,6.066a7.825,7.825,0,0,0-.093-2.687l-4-3.993-.25,2.359Zm.777,5.413a8.005,8.005,0,0,0-.353-2.128l-4.983-4.94-.391,2.523,4.189,4.25a1.207,1.207,0,0,0,1.539.3m-4.1.015-1.784-1.841a4.383,4.383,0,0,0-.259,1.9A4.168,4.168,0,0,0,25,67.173" transform="translate(0 0)" fill="#12263f"/>
      </g>
    </g>
  </g>
</svg>
