<svg xmlns="http://www.w3.org/2000/svg" xmlns:xlink="http://www.w3.org/1999/xlink" width="99" height="99" viewBox="0 0 99 99">
  <defs>
    <clipPath id="clip-path">
      <rect id="Rectangle_401223" data-name="Rectangle 401223" width="99" height="99" transform="translate(0)" fill="#ffc4c4"/>
    </clipPath>
    <clipPath id="clip-path-2">
      <rect id="Rectangle_470956" data-name="Rectangle 470956" width="60.927" height="69.014" fill="#12263f"/>
    </clipPath>
  </defs>
  <g id="img11" transform="translate(-799.863 -10104)">
    <g id="Group_1184301" data-name="Group 1184301" transform="translate(799.863 10104)">
      <g id="Group_1099652" data-name="Group 1099652" clip-path="url(#clip-path)">
        <path id="Path_873521" data-name="Path 873521" d="M99,77.066A22,22,0,0,1,77.066,99H21.934A22,22,0,0,1,0,77.066V21.933A22,22,0,0,1,21.934,0H77.066A22,22,0,0,1,99,21.934Z" transform="translate(0)" fill="#ffc4c4"/>
      </g>
    </g>
    <g id="Group_1220752" data-name="Group 1220752" transform="translate(818.936 10118.993)">
      <g id="Group_1220751" data-name="Group 1220751" clip-path="url(#clip-path-2)">
        <path id="Path_1277607" data-name="Path 1277607" d="M43,124.445h-3.8a5.024,5.024,0,0,1-5.1-4.991l-.045-10.325-3.395-.032-.06,9.151a5.511,5.511,0,0,1-5.3,5.481l-7.383-.02a5.46,5.46,0,0,1-5.08-5.447l-.051-31.3L8.142,91.472A4.7,4.7,0,0,1,3.87,92.732l-.006,30.74a1.423,1.423,0,0,1-1.385,1.436,1.4,1.4,0,0,1-1.461-1.488l-.011-32.5A4.615,4.615,0,0,1,1.3,84.824l9.639-9.675a6.123,6.123,0,0,1,4.226-1.88l14.829-.062a11.977,11.977,0,0,1,3.358.862,14.221,14.221,0,0,1,3.971-.873l8.462.071a5.98,5.98,0,0,1,4.1,1.774l9.757,9.782a4.647,4.647,0,0,1,.311,6.083v32.317c0,.989-.44,1.577-1.293,1.681a1.42,1.42,0,0,1-1.568-1.432l-.01-30.739a4.693,4.693,0,0,1-4.167-1.139l-2.951-2.7,4.34,16.643a2.788,2.788,0,0,1-2.549,3.52l-3.609.069-.046,10.327A5.014,5.014,0,0,1,43,124.445M23.133,108.717l.007,12.147c2.434.527,4.595-.662,4.6-2.693l.038-27.511a1.4,1.4,0,0,1,1.387-1.56,1.435,1.435,0,0,1,1.444,1.353l.057,7.718a2.441,2.441,0,0,0,2.714-2.339l.031-16.3A3.365,3.365,0,0,0,30.174,76.1l-14.122-.054a4.36,4.36,0,0,0-3.221,1.24L3.518,86.6a1.947,1.947,0,0,0-.154,2.7,1.884,1.884,0,0,0,2.737.132l6.875-6.811c.515-.51,1.041-.861,1.672-.612a1.413,1.413,0,0,1,1,1.337l.022,34.876a2.82,2.82,0,0,0,2.055,2.586,7.242,7.242,0,0,0,2.564.088l0-12.06a1.43,1.43,0,0,1,1.359-1.541,1.465,1.465,0,0,1,1.49,1.422M45.765,84.33a1.458,1.458,0,0,1,.682-1.716,1.475,1.475,0,0,1,1.855.372l6.526,6.449a1.883,1.883,0,0,0,2.738-.13,1.963,1.963,0,0,0-.155-2.709L48.223,77.4a4.515,4.515,0,0,0-3.341-1.356l-8.223.027a1.775,1.775,0,0,0-1.216.436,5.765,5.765,0,0,1,.816,2.9l.007,16.133a5.449,5.449,0,0,1-5.608,5.52l0,5.186,20.883-.007Zm-3.236,31.463-.016,5.789a2.3,2.3,0,0,0,2.734-2.607l0-9.9-8.313.009.009,10.546a2.314,2.314,0,0,0,2.732,1.959l.029-6.13a1.351,1.351,0,0,1,1.505-1.233,1.453,1.453,0,0,1,1.323,1.572" transform="translate(0 -55.9)" fill="#12263f"/>
        <path id="Path_1277608" data-name="Path 1277608" d="M148.423.161a7.455,7.455,0,1,1,2.687,14.666A7.455,7.455,0,0,1,148.423.161m.478,2.817a4.6,4.6,0,1,0,5.431,3.577A4.57,4.57,0,0,0,148.9,2.977" transform="translate(-108.741 -0.017)" fill="#12263f"/>
        <path id="Path_1277609" data-name="Path 1277609" d="M65.9.17a7.46,7.46,0,1,1-5.711,8.98A7.44,7.44,0,0,1,65.9.17m.471,2.813a4.6,4.6,0,1,0,5.548,3.391A4.589,4.589,0,0,0,66.37,2.983" transform="translate(-45.818 0.001)" fill="#12263f"/>
        <path id="Path_1277610" data-name="Path 1277610" d="M86.891,143.589a1.5,1.5,0,0,1,1.66,1.2,1.469,1.469,0,0,1-2.868.628,1.463,1.463,0,0,1,1.208-1.824" transform="translate(-65.4 -109.642)" fill="#12263f"/>
        <path id="Path_1277611" data-name="Path 1277611" d="M86.412,120.818a1.449,1.449,0,0,1,2,.619,1.473,1.473,0,0,1-.594,1.981,1.439,1.439,0,0,1-1.885-.439,1.464,1.464,0,0,1,.478-2.161" transform="translate(-65.409 -92.125)" fill="#12263f"/>
        <path id="Path_1277612" data-name="Path 1277612" d="M86.423,97.981a1.463,1.463,0,1,1-.493,2.137,1.431,1.431,0,0,1,.493-2.137" transform="translate(-65.408 -74.693)" fill="#12263f"/>
      </g>
    </g>
  </g>
</svg>
