<svg xmlns="http://www.w3.org/2000/svg" xmlns:xlink="http://www.w3.org/1999/xlink" width="84" height="84" viewBox="0 0 84 84">
  <defs>
    <clipPath id="clip-path">
      <rect id="Rectangle_470953" data-name="Rectangle 470953" width="59.087" height="59.095" fill="#12263f"/>
    </clipPath>
  </defs>
  <g id="img5" transform="translate(-706 -1685.277)">
    <g id="Group_1177731" data-name="Group 1177731">
      <g id="Group_1119665" data-name="Group 1119665" transform="translate(530.111 -3835.723)">
        <path id="Path_991847" data-name="Path 991847" d="M5,0H79a5,5,0,0,1,5,5V79a5,5,0,0,1-5,5H5a5,5,0,0,1-5-5V5A5,5,0,0,1,5,0Z" transform="translate(175.889 5521)" fill="#fee66f"/>
      </g>
    </g>
    <g id="Group_1220746" data-name="Group 1220746" transform="translate(717.987 1697.815)">
      <g id="Group_1220745" data-name="Group 1220745" clip-path="url(#clip-path)">
        <path id="Path_1277584" data-name="Path 1277584" d="M24.8,37.237l-.02,6.613,5.719,0,.006-3.823,3.8,0a1.9,1.9,0,0,1,1.915-1.9l9.532,0a1.868,1.868,0,0,1,1.9,1.894v5.727a1.888,1.888,0,0,1-1.9,1.9l-9.53.006a1.9,1.9,0,0,1-1.9-1.9l-.006-3.811h-1.9l-.006,3.8-7.619,0,.006,3.82,17.14-.009.011,3.817,3.8,0,.01-1.926a1.868,1.868,0,0,1,1.9-1.889h9.532a1.868,1.868,0,0,1,1.9,1.894v5.727a1.889,1.889,0,0,1-1.9,1.9l-9.529.006a1.9,1.9,0,0,1-1.9-1.9l-.011-1.912-5.706,0-.012-3.812H24.786l-.008,4.762a2.814,2.814,0,0,1-2.852,2.855l-5.738.006a2.792,2.792,0,0,1-2.821-2.7l-.024-19.16A19.057,19.057,0,1,1,37.216,13.318l2.816.02,0-9.527,5.709.007.013-1.926A1.869,1.869,0,0,1,47.656,0h9.532a1.868,1.868,0,0,1,1.9,1.894V7.624a1.889,1.889,0,0,1-1.9,1.9l-9.529.006a1.9,1.9,0,0,1-1.9-1.9l-.009-1.916-3.806.006v9.529l-11.414.006,0-1.727c0-.116.337-.258.529-.3a13.32,13.32,0,1,0,.806,9.636l-1.349,0,.011-1.9H41.937V30.5l3.8.006.011-1.927a1.868,1.868,0,0,1,1.9-1.889h9.532a1.868,1.868,0,0,1,1.9,1.894v5.727a1.889,1.889,0,0,1-1.9,1.9l-9.529.006a1.9,1.9,0,0,1-1.9-1.9l-.011-1.912H40.03l0-9.521-2.308.012A18.943,18.943,0,0,1,24.8,37.237m8.995-14.268a15.236,15.236,0,1,1-.608-9.668,8.87,8.87,0,0,0,2.044.009,17.178,17.178,0,1,0,.544,9.589,6.919,6.919,0,0,0-1.979.071M57.19,7.62l0-5.713H47.656V7.636Zm0,26.687,0-5.713H47.656v5.729ZM22.877,41.935l0-4.207a18.97,18.97,0,0,1-7.637,0l.007,4.221Zm22.876,3.81,0-5.713H36.219v5.729ZM22,57.186a1,1,0,0,0,.877-.974l0-12.367H15.248l0,12.367a.982.982,0,0,0,.962.971Zm35.193,0,0-5.713H47.656V57.2Z" transform="translate(0 0)" fill="#12263f"/>
        <path id="Path_1277585" data-name="Path 1277585" d="M62.38,69.032l-5.712.013L56.622,66.5l-1.781,1.761L50.756,64.2l1.763-1.8-2.535-.034V56.643a20.3,20.3,0,0,0,2.531-.048l-1.761-1.77,4.065-4.088,1.8,1.761.044-2.529h5.706l.05,2.537,1.791-1.767L68.279,54.8l-1.761,1.8,2.533.044V62.35l-2.534.044,1.765,1.78-4.066,4.087-1.792-1.768Zm-1.851-1.951a2.039,2.039,0,0,1,1.282-2.5,2.2,2.2,0,0,1,2.4.974A6.693,6.693,0,0,0,65.56,64.11a1.974,1.974,0,0,1-.856-2.577A2.124,2.124,0,0,1,67.127,60.5a7.567,7.567,0,0,0-.062-2A2.029,2.029,0,0,1,64.6,57.188a2.218,2.218,0,0,1,.973-2.379,6.944,6.944,0,0,0-1.44-1.352,1.967,1.967,0,0,1-2.573.852A2.124,2.124,0,0,1,60.5,51.891l-1.991.061a2.027,2.027,0,0,1-1.17,2.416,1.964,1.964,0,0,1-2.439-.912,4.987,4.987,0,0,0-1.427,1.427,2,2,0,0,1,.85,2.577,2.15,2.15,0,0,1-2.42,1.061,7.644,7.644,0,0,0,.065,1.991,1.962,1.962,0,0,1,1.511,3.6,6.682,6.682,0,0,0,1.348,1.441,2.014,2.014,0,0,1,3.7,1.564Z" transform="translate(-40.456 -40.445)" fill="#12263f"/>
        <path id="Path_1277586" data-name="Path 1277586" d="M175.336,77.565l-.017-1.831-15.2,0,0-1.913,15.206.009.022-1.928a1.874,1.874,0,0,1,1.906-1.889h9.532a1.868,1.868,0,0,1,1.9,1.894v5.727a1.888,1.888,0,0,1-1.9,1.9l-9.529.005a1.922,1.922,0,0,1-1.91-1.978m11.445.067,0-5.713h-9.531v5.729Z" transform="translate(-129.591 -56.668)" fill="#12263f"/>
        <path id="Path_1277587" data-name="Path 1277587" d="M261.935,21.866l-1.9.015v-1.9l1.893,0Z" transform="translate(-210.462 -16.169)" fill="#12263f"/>
        <path id="Path_1277588" data-name="Path 1277588" d="M281.935,21.866l-1.9.015v-1.9l1.893,0Z" transform="translate(-226.65 -16.169)" fill="#12263f"/>
        <path id="Path_1277589" data-name="Path 1277589" d="M261.935,161.866l-1.9.015v-1.9l1.893,0Z" transform="translate(-210.462 -129.481)" fill="#12263f"/>
        <path id="Path_1277590" data-name="Path 1277590" d="M281.935,161.866l-1.9.015v-1.9l1.893,0Z" transform="translate(-226.65 -129.481)" fill="#12263f"/>
        <path id="Path_1277591" data-name="Path 1277591" d="M201.935,221.866l-1.9.015v-1.9l1.893,0Z" transform="translate(-161.899 -178.044)" fill="#12263f"/>
        <path id="Path_1277592" data-name="Path 1277592" d="M221.935,221.866l-1.9.015v-1.9l1.893,0Z" transform="translate(-178.087 -178.044)" fill="#12263f"/>
        <path id="Path_1277593" data-name="Path 1277593" d="M261.935,281.866l-1.9.015v-1.9l1.893,0Z" transform="translate(-210.462 -226.606)" fill="#12263f"/>
        <path id="Path_1277594" data-name="Path 1277594" d="M281.935,281.866l-1.9.015v-1.9l1.893,0Z" transform="translate(-226.65 -226.606)" fill="#12263f"/>
        <path id="Path_1277595" data-name="Path 1277595" d="M83.066,80.1a3.8,3.8,0,1,1-2.918,4.645A3.772,3.772,0,0,1,83.066,80.1m.2,1.916a1.894,1.894,0,1,0,1.146,3.611,1.924,1.924,0,0,0,1.245-2.382,1.877,1.877,0,0,0-2.391-1.229" transform="translate(-64.779 -64.76)" fill="#12263f"/>
        <path id="Path_1277596" data-name="Path 1277596" d="M261.935,91.866l-1.9.015v-1.9l1.893,0Z" transform="translate(-210.462 -72.825)" fill="#12263f"/>
        <path id="Path_1277597" data-name="Path 1277597" d="M281.935,91.866l-1.9.015v-1.9l1.893,0Z" transform="translate(-226.65 -72.825)" fill="#12263f"/>
      </g>
    </g>
  </g>
</svg>
